<mxfile host="app.diagrams.net" modified="2020-12-17T09:57:47.068Z" agent="5.0 (Windows NT 10.0; Win64; x64) AppleWebKit/537.36 (KHTML, like Gecko) Chrome/87.0.4280.88 Safari/537.36" etag="_WPY4hCCFBfBRH2S6QgJ" version="14.0.3" type="github">
  <diagram id="mokjGVOsl64l8EOyUCtu" name="Page-1">
    <mxGraphModel dx="868" dy="450" grid="1" gridSize="10" guides="1" tooltips="1" connect="1" arrows="1" fold="1" page="1" pageScale="1" pageWidth="827" pageHeight="1169" math="0" shadow="0">
      <root>
        <mxCell id="0" />
        <mxCell id="1" parent="0" />
        <mxCell id="vcYYR_7fKs7UkaZsMJBq-3" value="" style="verticalLabelPosition=bottom;verticalAlign=top;html=1;shape=mxgraph.basic.rect;fillColor2=none;strokeWidth=1;size=20;indent=5;" vertex="1" parent="1">
          <mxGeometry x="90" y="100" width="190" height="140" as="geometry" />
        </mxCell>
        <mxCell id="vcYYR_7fKs7UkaZsMJBq-4" value="" style="shape=actor;whiteSpace=wrap;html=1;" vertex="1" parent="1">
          <mxGeometry x="100" y="110" width="30" height="40" as="geometry" />
        </mxCell>
        <mxCell id="vcYYR_7fKs7UkaZsMJBq-5" value="&lt;font style=&quot;font-size: 18px&quot;&gt;Customer&lt;/font&gt;" style="text;html=1;strokeColor=none;fillColor=none;align=center;verticalAlign=middle;whiteSpace=wrap;rounded=0;" vertex="1" parent="1">
          <mxGeometry x="151" y="120" width="100" height="30" as="geometry" />
        </mxCell>
        <mxCell id="vcYYR_7fKs7UkaZsMJBq-7" value="&lt;span style=&quot;font-size: 18px&quot;&gt;Melihat tampilan Home&lt;/span&gt;" style="text;html=1;strokeColor=none;fillColor=none;align=center;verticalAlign=middle;whiteSpace=wrap;rounded=0;" vertex="1" parent="1">
          <mxGeometry x="98" y="161" width="170" height="70" as="geometry" />
        </mxCell>
        <mxCell id="vcYYR_7fKs7UkaZsMJBq-8" value="" style="verticalLabelPosition=bottom;verticalAlign=top;html=1;shape=mxgraph.basic.rect;fillColor2=none;strokeWidth=1;size=20;indent=5;" vertex="1" parent="1">
          <mxGeometry x="350" y="100" width="190" height="140" as="geometry" />
        </mxCell>
        <mxCell id="vcYYR_7fKs7UkaZsMJBq-9" value="" style="shape=actor;whiteSpace=wrap;html=1;" vertex="1" parent="1">
          <mxGeometry x="360" y="110" width="30" height="40" as="geometry" />
        </mxCell>
        <mxCell id="vcYYR_7fKs7UkaZsMJBq-10" value="&lt;font style=&quot;font-size: 18px&quot;&gt;Customer&lt;/font&gt;" style="text;html=1;strokeColor=none;fillColor=none;align=center;verticalAlign=middle;whiteSpace=wrap;rounded=0;" vertex="1" parent="1">
          <mxGeometry x="411" y="120" width="100" height="30" as="geometry" />
        </mxCell>
        <mxCell id="vcYYR_7fKs7UkaZsMJBq-12" value="&lt;span style=&quot;font-size: 18px&quot;&gt;Melakukan Registrasi / Login user&amp;nbsp;&lt;/span&gt;" style="text;html=1;strokeColor=none;fillColor=none;align=center;verticalAlign=middle;whiteSpace=wrap;rounded=0;" vertex="1" parent="1">
          <mxGeometry x="360" y="161" width="170" height="70" as="geometry" />
        </mxCell>
        <mxCell id="vcYYR_7fKs7UkaZsMJBq-17" value="" style="verticalLabelPosition=bottom;verticalAlign=top;html=1;shape=mxgraph.basic.rect;fillColor2=none;strokeWidth=1;size=20;indent=5;" vertex="1" parent="1">
          <mxGeometry x="588" y="100" width="190" height="140" as="geometry" />
        </mxCell>
        <mxCell id="vcYYR_7fKs7UkaZsMJBq-18" value="" style="shape=actor;whiteSpace=wrap;html=1;" vertex="1" parent="1">
          <mxGeometry x="598" y="106" width="30" height="40" as="geometry" />
        </mxCell>
        <mxCell id="vcYYR_7fKs7UkaZsMJBq-19" value="&lt;font style=&quot;font-size: 18px&quot;&gt;Customer&lt;/font&gt;" style="text;html=1;strokeColor=none;fillColor=none;align=center;verticalAlign=middle;whiteSpace=wrap;rounded=0;" vertex="1" parent="1">
          <mxGeometry x="649" y="116" width="100" height="30" as="geometry" />
        </mxCell>
        <mxCell id="vcYYR_7fKs7UkaZsMJBq-20" value="&lt;span style=&quot;font-size: 18px&quot;&gt;Memilih jenis usaha&amp;nbsp;&lt;/span&gt;" style="text;html=1;strokeColor=none;fillColor=none;align=center;verticalAlign=middle;whiteSpace=wrap;rounded=0;" vertex="1" parent="1">
          <mxGeometry x="598" y="161" width="170" height="70" as="geometry" />
        </mxCell>
        <mxCell id="vcYYR_7fKs7UkaZsMJBq-25" value="" style="verticalLabelPosition=bottom;verticalAlign=top;html=1;shape=mxgraph.basic.rect;fillColor2=none;strokeWidth=1;size=20;indent=5;" vertex="1" parent="1">
          <mxGeometry x="90" y="280" width="190" height="170" as="geometry" />
        </mxCell>
        <mxCell id="vcYYR_7fKs7UkaZsMJBq-26" value="" style="shape=actor;whiteSpace=wrap;html=1;" vertex="1" parent="1">
          <mxGeometry x="100" y="290" width="30" height="40" as="geometry" />
        </mxCell>
        <mxCell id="vcYYR_7fKs7UkaZsMJBq-27" value="&lt;font style=&quot;font-size: 18px&quot;&gt;Customer&lt;/font&gt;" style="text;html=1;strokeColor=none;fillColor=none;align=center;verticalAlign=middle;whiteSpace=wrap;rounded=0;" vertex="1" parent="1">
          <mxGeometry x="151" y="300" width="100" height="30" as="geometry" />
        </mxCell>
        <mxCell id="vcYYR_7fKs7UkaZsMJBq-28" value="&lt;span style=&quot;font-size: 18px&quot;&gt;memasukan nominal bantuan, edit gambar yang ada pada produk, memasukan alamat&lt;/span&gt;" style="text;html=1;strokeColor=none;fillColor=none;align=center;verticalAlign=middle;whiteSpace=wrap;rounded=0;" vertex="1" parent="1">
          <mxGeometry x="100" y="357" width="170" height="70" as="geometry" />
        </mxCell>
        <mxCell id="vcYYR_7fKs7UkaZsMJBq-29" value="" style="verticalLabelPosition=bottom;verticalAlign=top;html=1;shape=mxgraph.basic.rect;fillColor2=none;strokeWidth=1;size=20;indent=5;" vertex="1" parent="1">
          <mxGeometry x="350" y="280" width="190" height="140" as="geometry" />
        </mxCell>
        <mxCell id="vcYYR_7fKs7UkaZsMJBq-30" value="" style="shape=actor;whiteSpace=wrap;html=1;" vertex="1" parent="1">
          <mxGeometry x="360" y="290" width="30" height="40" as="geometry" />
        </mxCell>
        <mxCell id="vcYYR_7fKs7UkaZsMJBq-31" value="&lt;font style=&quot;font-size: 18px&quot;&gt;Customer&lt;/font&gt;" style="text;html=1;strokeColor=none;fillColor=none;align=center;verticalAlign=middle;whiteSpace=wrap;rounded=0;" vertex="1" parent="1">
          <mxGeometry x="411" y="300" width="100" height="30" as="geometry" />
        </mxCell>
        <mxCell id="vcYYR_7fKs7UkaZsMJBq-32" value="&lt;span style=&quot;font-size: 18px&quot;&gt;Menampilkan invoice dan transfer bukti bantuan&lt;/span&gt;" style="text;html=1;strokeColor=none;fillColor=none;align=center;verticalAlign=middle;whiteSpace=wrap;rounded=0;" vertex="1" parent="1">
          <mxGeometry x="358" y="337" width="170" height="70" as="geometry" />
        </mxCell>
        <mxCell id="vcYYR_7fKs7UkaZsMJBq-33" value="" style="verticalLabelPosition=bottom;verticalAlign=top;html=1;shape=mxgraph.basic.rect;fillColor2=none;strokeWidth=1;size=20;indent=5;" vertex="1" parent="1">
          <mxGeometry x="88" y="610" width="190" height="140" as="geometry" />
        </mxCell>
        <mxCell id="vcYYR_7fKs7UkaZsMJBq-34" value="" style="shape=actor;whiteSpace=wrap;html=1;" vertex="1" parent="1">
          <mxGeometry x="98" y="620" width="30" height="40" as="geometry" />
        </mxCell>
        <mxCell id="vcYYR_7fKs7UkaZsMJBq-35" value="&lt;font style=&quot;font-size: 18px&quot;&gt;Customer&lt;/font&gt;" style="text;html=1;strokeColor=none;fillColor=none;align=center;verticalAlign=middle;whiteSpace=wrap;rounded=0;" vertex="1" parent="1">
          <mxGeometry x="149" y="630" width="100" height="30" as="geometry" />
        </mxCell>
        <mxCell id="vcYYR_7fKs7UkaZsMJBq-36" value="&lt;span style=&quot;font-size: 18px&quot;&gt;Memilih jenis usaha dan nominal uang yang ingin dibantu&lt;/span&gt;" style="text;html=1;strokeColor=none;fillColor=none;align=center;verticalAlign=middle;whiteSpace=wrap;rounded=0;" vertex="1" parent="1">
          <mxGeometry x="98" y="671" width="170" height="70" as="geometry" />
        </mxCell>
        <mxCell id="vcYYR_7fKs7UkaZsMJBq-37" value="" style="verticalLabelPosition=bottom;verticalAlign=top;html=1;shape=mxgraph.basic.rect;fillColor2=none;strokeWidth=1;size=20;indent=5;" vertex="1" parent="1">
          <mxGeometry x="590" y="280" width="190" height="140" as="geometry" />
        </mxCell>
        <mxCell id="vcYYR_7fKs7UkaZsMJBq-38" value="" style="shape=actor;whiteSpace=wrap;html=1;" vertex="1" parent="1">
          <mxGeometry x="600" y="290" width="30" height="40" as="geometry" />
        </mxCell>
        <mxCell id="vcYYR_7fKs7UkaZsMJBq-39" value="&lt;font style=&quot;font-size: 18px&quot;&gt;Customer&lt;/font&gt;" style="text;html=1;strokeColor=none;fillColor=none;align=center;verticalAlign=middle;whiteSpace=wrap;rounded=0;" vertex="1" parent="1">
          <mxGeometry x="651" y="300" width="100" height="30" as="geometry" />
        </mxCell>
        <mxCell id="vcYYR_7fKs7UkaZsMJBq-40" value="&lt;span style=&quot;font-size: 18px&quot;&gt;Menampilkan invoice dan transfer bukti bantuan&lt;/span&gt;" style="text;html=1;strokeColor=none;fillColor=none;align=center;verticalAlign=middle;whiteSpace=wrap;rounded=0;" vertex="1" parent="1">
          <mxGeometry x="598" y="337" width="170" height="70" as="geometry" />
        </mxCell>
        <mxCell id="vcYYR_7fKs7UkaZsMJBq-41" value="" style="ellipse;whiteSpace=wrap;html=1;" vertex="1" parent="1">
          <mxGeometry x="108" y="120" width="10" as="geometry" />
        </mxCell>
      </root>
    </mxGraphModel>
  </diagram>
</mxfile>
